<svg width="18" height="21" viewBox="0 0 18 21" fill="none" xmlns="http://www.w3.org/2000/svg">
<path d="M15.1691 11.4231C15.1451 8.83897 17.3537 7.58179 17.4547 7.52326C16.2039 5.75695 14.2652 5.51561 13.5839 5.49637C11.9556 5.3304 10.3762 6.44006 9.54672 6.44006C8.70071 6.44006 7.42342 5.51241 6.0468 5.53967C4.27532 5.56613 2.61807 6.55953 1.70915 8.10214C-0.166639 11.2475 1.23234 15.8697 3.02948 18.4122C3.92847 19.6573 4.97894 21.0476 6.35391 20.9987C7.69908 20.945 8.20155 20.1681 9.82486 20.1681C11.4333 20.1681 11.9051 20.9987 13.3074 20.9674C14.7511 20.945 15.66 19.7167 16.5275 18.4603C17.5664 17.0331 17.9836 15.6276 18.0002 15.5554C17.9662 15.5442 15.1964 14.5204 15.1691 11.4231Z" fill="white"/>
<path d="M12.5202 3.82387C13.2437 2.94753 13.7387 1.75529 13.6013 0.54541C12.5541 0.59031 11.2445 1.24696 10.4904 2.10406C9.82321 2.85933 9.22719 4.09727 9.38116 5.26145C10.5575 5.34644 11.7652 4.68658 12.5202 3.82387Z" fill="white"/>
</svg>
