<svg width="201" height="201" viewBox="0 0 201 201" fill="none" xmlns="http://www.w3.org/2000/svg">
<path d="M20.9375 12.5625H14.5625C13.4579 12.5625 12.5625 13.4579 12.5625 14.5625V20.9375H20.9375V12.5625Z" fill="#393967"/>
<path d="M29.3125 12.5625H20.9375V20.9375H29.3125V12.5625Z" fill="#393967"/>
<path d="M37.6875 12.5625H29.3125V20.9375H37.6875V12.5625Z" fill="#393967"/>
<path d="M46.0625 12.5625H37.6875V20.9375H46.0625V12.5625Z" fill="#393967"/>
<path d="M54.4375 12.5625H46.0625V20.9375H54.4375V12.5625Z" fill="#393967"/>
<path d="M62.8125 12.5625H54.4375V20.9375H62.8125V12.5625Z" fill="#393967"/>
<path d="M71.1875 14.5625C71.1875 13.4579 70.2921 12.5625 69.1875 12.5625H62.8125V20.9375H71.1875V14.5625Z" fill="#393967"/>
<path d="M87.9375 12.5625H81.5625C80.4579 12.5625 79.5625 13.4579 79.5625 14.5625V18.9375C79.5625 20.0421 80.4579 20.9375 81.5625 20.9375H87.9375V12.5625Z" fill="#393967"/>
<path d="M96.3125 14.5625C96.3125 13.4579 95.4171 12.5625 94.3125 12.5625H87.9375V20.9375H96.3125V14.5625Z" fill="#393967"/>
<path d="M121.438 14.5625C121.438 13.4579 120.542 12.5625 119.438 12.5625H115.062C113.958 12.5625 113.062 13.4579 113.062 14.5625V18.9375C113.062 20.0421 113.958 20.9375 115.062 20.9375H119.438C120.542 20.9375 121.438 20.0421 121.438 18.9375V14.5625Z" fill="#393967"/>
<path d="M138.187 12.5625H131.812C130.708 12.5625 129.812 13.4579 129.812 14.5625V20.9375H138.187V12.5625Z" fill="#393967"/>
<path d="M146.562 12.5625H138.187V20.9375H146.562V12.5625Z" fill="#393967"/>
<path d="M154.937 12.5625H146.562V20.9375H154.937V12.5625Z" fill="#393967"/>
<path d="M163.312 12.5625H154.937V20.9375H163.312V12.5625Z" fill="#393967"/>
<path d="M171.687 12.5625H163.312V20.9375H171.687V12.5625Z" fill="#393967"/>
<path d="M180.062 12.5625H171.687V20.9375H180.062V12.5625Z" fill="#393967"/>
<path d="M188.438 14.5625C188.438 13.4579 187.542 12.5625 186.438 12.5625H180.062V20.9375H188.438V14.5625Z" fill="#393967"/>
<path d="M20.9375 20.9375H12.5625V29.3125H20.9375V20.9375Z" fill="#393967"/>
<path d="M71.1875 20.9375H62.8125V29.3125H71.1875V20.9375Z" fill="#393967"/>
<path d="M104.687 22.9375C104.687 21.8329 103.792 20.9375 102.687 20.9375H96.3125V29.3125H104.687V22.9375Z" fill="#393967"/>
<path d="M138.187 20.9375H129.812V29.3125H138.187V20.9375Z" fill="#393967"/>
<path d="M188.438 20.9375H180.062V29.3125H188.438V20.9375Z" fill="#393967"/>
<path d="M20.9375 29.3125H12.5625V37.6875H20.9375V29.3125Z" fill="#393967"/>
<path d="M37.6875 29.3125H31.3125C30.2079 29.3125 29.3125 30.2079 29.3125 31.3125V37.6875H37.6875V29.3125Z" fill="#393967"/>
<path d="M46.0625 29.3125H37.6875V37.6875H46.0625V29.3125Z" fill="#393967"/>
<path d="M54.4375 31.3125C54.4375 30.2079 53.5421 29.3125 52.4375 29.3125H46.0625V37.6875H54.4375V31.3125Z" fill="#393967"/>
<path d="M71.1875 29.3125H62.8125V37.6875H71.1875V29.3125Z" fill="#393967"/>
<path d="M104.687 29.3125H96.3125V37.6875H104.687V29.3125Z" fill="#393967"/>
<path d="M138.187 29.3125H129.812V37.6875H138.187V29.3125Z" fill="#393967"/>
<path d="M154.937 29.3125H148.562C147.458 29.3125 146.562 30.2079 146.562 31.3125V37.6875H154.937V29.3125Z" fill="#393967"/>
<path d="M163.312 29.3125H154.937V37.6875H163.312V29.3125Z" fill="#393967"/>
<path d="M171.687 31.3125C171.687 30.2079 170.792 29.3125 169.687 29.3125H163.312V37.6875H171.687V31.3125Z" fill="#393967"/>
<path d="M188.438 29.3125H180.062V37.6875H188.438V29.3125Z" fill="#393967"/>
<path d="M20.9375 37.6875H12.5625V46.0625H20.9375V37.6875Z" fill="#393967"/>
<path d="M37.6875 37.6875H29.3125V46.0625H37.6875V37.6875Z" fill="#393967"/>
<path d="M46.0625 37.6875H37.6875V46.0625H46.0625V37.6875Z" fill="#393967"/>
<path d="M54.4375 37.6875H46.0625V46.0625H54.4375V37.6875Z" fill="#393967"/>
<path d="M71.1875 37.6875H62.8125V46.0625H71.1875V37.6875Z" fill="#393967"/>
<path d="M87.9375 39.6875C87.9375 38.5829 87.0421 37.6875 85.9375 37.6875H81.5625C80.4579 37.6875 79.5625 38.5829 79.5625 39.6875V44.0625C79.5625 45.1671 80.4579 46.0625 81.5625 46.0625H85.9375C87.0421 46.0625 87.9375 45.1671 87.9375 44.0625V39.6875Z" fill="#393967"/>
<path d="M104.687 37.6875H96.3125V46.0625H104.687V37.6875Z" fill="#393967"/>
<path d="M113.062 37.6875H104.687V46.0625H113.062V37.6875Z" fill="#393967"/>
<path d="M121.438 39.6875C121.438 38.5829 120.542 37.6875 119.438 37.6875H113.062V46.0625H119.438C120.542 46.0625 121.438 45.1671 121.438 44.0625V39.6875Z" fill="#393967"/>
<path d="M138.187 37.6875H129.812V46.0625H138.187V37.6875Z" fill="#393967"/>
<path d="M154.937 37.6875H146.562V46.0625H154.937V37.6875Z" fill="#393967"/>
<path d="M163.312 37.6875H154.937V46.0625H163.312V37.6875Z" fill="#393967"/>
<path d="M171.687 37.6875H163.312V46.0625H171.687V37.6875Z" fill="#393967"/>
<path d="M188.438 37.6875H180.062V46.0625H188.438V37.6875Z" fill="#393967"/>
<path d="M20.9375 46.0625H12.5625V54.4375H20.9375V46.0625Z" fill="#393967"/>
<path d="M37.6875 46.0625H29.3125V52.4375C29.3125 53.5421 30.2079 54.4375 31.3125 54.4375H37.6875V46.0625Z" fill="#393967"/>
<path d="M46.0625 46.0625H37.6875V54.4375H46.0625V46.0625Z" fill="#393967"/>
<path d="M54.4375 46.0625H46.0625V54.4375H52.4375C53.5421 54.4375 54.4375 53.5421 54.4375 52.4375V46.0625Z" fill="#393967"/>
<path d="M71.1875 46.0625H62.8125V54.4375H71.1875V46.0625Z" fill="#393967"/>
<path d="M104.687 46.0625H96.3125V54.4375H104.687V46.0625Z" fill="#393967"/>
<path d="M113.062 46.0625H104.687V54.4375H111.062C112.167 54.4375 113.062 53.5421 113.062 52.4375V46.0625Z" fill="#393967"/>
<path d="M138.187 46.0625H129.812V54.4375H138.187V46.0625Z" fill="#393967"/>
<path d="M154.937 46.0625H146.562V52.4375C146.562 53.5421 147.458 54.4375 148.562 54.4375H154.937V46.0625Z" fill="#393967"/>
<path d="M163.312 46.0625H154.937V54.4375H163.312V46.0625Z" fill="#393967"/>
<path d="M171.687 46.0625H163.312V54.4375H169.687C170.792 54.4375 171.687 53.5421 171.687 52.4375V46.0625Z" fill="#393967"/>
<path d="M188.438 46.0625H180.062V54.4375H188.438V46.0625Z" fill="#393967"/>
<path d="M20.9375 54.4375H12.5625V62.8125H20.9375V54.4375Z" fill="#393967"/>
<path d="M71.1875 54.4375H62.8125V62.8125H71.1875V54.4375Z" fill="#393967"/>
<path d="M87.9375 56.4375C87.9375 55.3329 87.0421 54.4375 85.9375 54.4375H81.5625C80.4579 54.4375 79.5625 55.3329 79.5625 56.4375V62.8125H87.9375V56.4375Z" fill="#393967"/>
<path d="M104.687 54.4375H96.3125V62.8125H104.687V54.4375Z" fill="#393967"/>
<path d="M138.187 54.4375H129.812V62.8125H138.187V54.4375Z" fill="#393967"/>
<path d="M188.438 54.4375H180.062V62.8125H188.438V54.4375Z" fill="#393967"/>
<path d="M20.9375 62.8125H12.5625V69.1875C12.5625 70.2921 13.4579 71.1875 14.5625 71.1875H20.9375V62.8125Z" fill="#393967"/>
<path d="M29.3125 62.8125H20.9375V71.1875H29.3125V62.8125Z" fill="#393967"/>
<path d="M37.6875 62.8125H29.3125V71.1875H37.6875V62.8125Z" fill="#393967"/>
<path d="M46.0625 62.8125H37.6875V71.1875H46.0625V62.8125Z" fill="#393967"/>
<path d="M54.4375 62.8125H46.0625V71.1875H54.4375V62.8125Z" fill="#393967"/>
<path d="M62.8125 62.8125H54.4375V71.1875H62.8125V62.8125Z" fill="#393967"/>
<path d="M71.1875 62.8125H62.8125V71.1875H69.1875C70.2921 71.1875 71.1875 70.2921 71.1875 69.1875V62.8125Z" fill="#393967"/>
<path d="M87.9375 62.8125H79.5625V69.1875C79.5625 70.2921 80.4579 71.1875 81.5625 71.1875H85.9375C87.0421 71.1875 87.9375 70.2921 87.9375 69.1875V62.8125Z" fill="#393967"/>
<path d="M104.687 62.8125H96.3125V71.1875H104.687V62.8125Z" fill="#393967"/>
<path d="M121.438 64.8125C121.438 63.7079 120.542 62.8125 119.438 62.8125H115.062C113.958 62.8125 113.062 63.7079 113.062 64.8125V69.1875C113.062 70.2921 113.958 71.1875 115.062 71.1875H119.438C120.542 71.1875 121.438 70.2921 121.438 69.1875V64.8125Z" fill="#393967"/>
<path d="M138.187 62.8125H129.812V69.1875C129.812 70.2921 130.708 71.1875 131.812 71.1875H138.187V62.8125Z" fill="#393967"/>
<path d="M146.562 62.8125H138.187V71.1875H146.562V62.8125Z" fill="#393967"/>
<path d="M154.937 62.8125H146.562V71.1875H154.937V62.8125Z" fill="#393967"/>
<path d="M163.312 62.8125H154.937V71.1875H163.312V62.8125Z" fill="#393967"/>
<path d="M171.687 62.8125H163.312V71.1875H171.687V62.8125Z" fill="#393967"/>
<path d="M180.062 62.8125H171.687V71.1875H180.062V62.8125Z" fill="#393967"/>
<path d="M188.438 62.8125H180.062V71.1875H186.438C187.542 71.1875 188.438 70.2921 188.438 69.1875V62.8125Z" fill="#393967"/>
<path d="M104.687 71.1875H96.3125V79.5625H104.687V71.1875Z" fill="#393967"/>
<path d="M62.8125 79.5625H56.4375C55.3329 79.5625 54.4375 80.4579 54.4375 81.5625V87.9375H62.8125V79.5625Z" fill="#393967"/>
<path d="M71.1875 81.5625C71.1875 80.4579 70.2921 79.5625 69.1875 79.5625H62.8125V87.9375H69.1875C70.2921 87.9375 71.1875 87.0421 71.1875 85.9375V81.5625Z" fill="#393967"/>
<path d="M87.9375 81.5625C87.9375 80.4579 87.0421 79.5625 85.9375 79.5625H81.5625C80.4579 79.5625 79.5625 80.4579 79.5625 81.5625V87.9375H87.9375V81.5625Z" fill="#393967"/>
<path d="M104.687 79.5625H96.3125V85.9375C96.3125 87.0421 97.2079 87.9375 98.3125 87.9375H102.687C103.792 87.9375 104.687 87.0421 104.687 85.9375V79.5625Z" fill="#393967"/>
<path d="M121.438 79.5625H115.062C113.958 79.5625 113.062 80.4579 113.062 81.5625V85.9375C113.062 87.0421 113.958 87.9375 115.062 87.9375H121.438V79.5625Z" fill="#393967"/>
<path d="M129.812 81.5625C129.812 80.4579 128.917 79.5625 127.812 79.5625H121.438V87.9375H127.812C128.917 87.9375 129.812 87.0421 129.812 85.9375V81.5625Z" fill="#393967"/>
<path d="M146.562 81.5625C146.562 80.4579 145.667 79.5625 144.562 79.5625H140.187C139.083 79.5625 138.187 80.4579 138.187 81.5625V87.9375H146.562V81.5625Z" fill="#393967"/>
<path d="M163.312 81.5625C163.312 80.4579 162.417 79.5625 161.312 79.5625H156.937C155.833 79.5625 154.937 80.4579 154.937 81.5625V87.9375H163.312V81.5625Z" fill="#393967"/>
<path d="M188.438 81.5625C188.438 80.4579 187.542 79.5625 186.438 79.5625H182.062C180.958 79.5625 180.062 80.4579 180.062 81.5625V87.9375H188.438V81.5625Z" fill="#393967"/>
<path d="M29.3125 87.9375H22.9375C21.8329 87.9375 20.9375 88.8329 20.9375 89.9375V96.3125H29.3125V87.9375Z" fill="#393967"/>
<path d="M37.6875 89.9375C37.6875 88.8329 36.7921 87.9375 35.6875 87.9375H29.3125V96.3125H37.6875V89.9375Z" fill="#393967"/>
<path d="M54.4375 87.9375H48.0625C46.9579 87.9375 46.0625 88.8329 46.0625 89.9375V96.3125H54.4375V87.9375Z" fill="#393967"/>
<path d="M62.8125 87.9375H54.4375V96.3125H62.8125V87.9375Z" fill="#393967"/>
<path d="M87.9375 87.9375H79.5625V94.3125C79.5625 95.4171 80.4579 96.3125 81.5625 96.3125H87.9375V87.9375Z" fill="#393967"/>
<path d="M146.562 87.9375H138.187V94.3125C138.187 95.4171 139.083 96.3125 140.188 96.3125H146.562V87.9375Z" fill="#393967"/>
<path d="M154.937 87.9375H146.562V96.3125H154.937V87.9375Z" fill="#393967"/>
<path d="M163.312 87.9375H154.937V96.3125H163.312V87.9375Z" fill="#393967"/>
<path d="M180.062 87.9375H173.687C172.583 87.9375 171.687 88.8329 171.687 89.9375V96.3125H180.062V87.9375Z" fill="#393967"/>
<path d="M188.438 87.9375H180.062V96.3125H188.438V87.9375Z" fill="#393967"/>
<path d="M29.3125 96.3125H20.9375V104.687H29.3125V96.3125Z" fill="#393967"/>
<path d="M37.6875 96.3125H29.3125V104.687H37.6875V96.3125Z" fill="#393967"/>
<path d="M46.0625 96.3125H37.6875V104.687H46.0625V96.3125Z" fill="#393967"/>
<path d="M62.8125 96.3125H54.4375V104.687H62.8125V96.3125Z" fill="#393967"/>
<path d="M71.1875 98.3125C71.1875 97.2079 70.2921 96.3125 69.1875 96.3125H62.8125V104.687H69.1875C70.2921 104.687 71.1875 103.792 71.1875 102.687V98.3125Z" fill="#393967"/>
<path d="M96.3125 98.3125C96.3125 97.2079 95.4171 96.3125 94.3125 96.3125H87.9375L87.9375 104.687H96.3125V98.3125Z" fill="#393967"/>
<path d="M113.062 96.3125H106.687C105.583 96.3125 104.687 97.2079 104.687 98.3125V104.687H113.062V96.3125Z" fill="#393967"/>
<path d="M121.438 98.3125C121.438 97.2079 120.542 96.3125 119.438 96.3125H113.062V104.687H121.438V98.3125Z" fill="#393967"/>
<path d="M154.937 96.3125H146.562V102.687C146.562 103.792 147.458 104.687 148.562 104.687H152.937C154.042 104.687 154.937 103.792 154.937 102.687V96.3125Z" fill="#393967"/>
<path d="M171.687 96.3125H163.312V104.687H171.687V96.3125Z" fill="#393967"/>
<path d="M188.438 96.3125H180.062V104.687H186.438C187.542 104.687 188.438 103.792 188.438 102.687V96.3125Z" fill="#393967"/>
<path d="M20.9375 104.687L14.5625 104.687C13.4579 104.687 12.5625 105.583 12.5625 106.687V113.062H20.9375V104.687Z" fill="#393967"/>
<path d="M29.3125 104.687H20.9375V113.062H29.3125V104.687Z" fill="#393967"/>
<path d="M37.6875 104.687H29.3125V113.062H37.6875V104.687Z" fill="#393967"/>
<path d="M46.0625 104.687H37.6875V113.062H46.0625V104.687Z" fill="#393967"/>
<path d="M54.4375 104.687H46.0625V113.062H54.4375V104.687Z" fill="#393967"/>
<path d="M87.9375 104.687L81.5625 104.687C80.4579 104.687 79.5625 105.583 79.5625 106.687V113.062H87.9375L87.9375 104.687Z" fill="#393967"/>
<path d="M96.3125 104.687H87.9375L87.9375 113.062H96.3125V104.687Z" fill="#393967"/>
<path d="M104.687 104.687H96.3125V113.062H104.687L104.687 104.687Z" fill="#393967"/>
<path d="M121.438 104.687H113.062V113.062H119.438C120.542 113.062 121.438 112.167 121.438 111.062V104.687Z" fill="#393967"/>
<path d="M138.187 106.687C138.187 105.583 137.292 104.687 136.187 104.687H131.812C130.708 104.687 129.812 105.583 129.812 106.687V113.062H138.187V106.687Z" fill="#393967"/>
<path d="M171.687 104.687H163.312V111.062C163.312 112.167 164.208 113.062 165.312 113.062H171.687V104.687Z" fill="#393967"/>
<path d="M180.062 104.687H171.687V113.062H180.062V104.687Z" fill="#393967"/>
<path d="M20.9375 113.062H12.5625V119.438C12.5625 120.542 13.4579 121.438 14.5625 121.438H20.9375V113.062Z" fill="#393967"/>
<path d="M29.3125 113.062H20.9375V121.438H29.3125V113.062Z" fill="#393967"/>
<path d="M37.6875 113.062H29.3125V121.438H35.6875C36.7921 121.438 37.6875 120.542 37.6875 119.438V113.062Z" fill="#393967"/>
<path d="M54.4375 113.062H46.0625V119.438C46.0625 120.542 46.9579 121.438 48.0625 121.438H52.4375C53.5421 121.438 54.4375 120.542 54.4375 119.438V113.062Z" fill="#393967"/>
<path d="M71.1875 115.062C71.1875 113.958 70.2921 113.062 69.1875 113.062H64.8125C63.7079 113.062 62.8125 113.958 62.8125 115.062V119.438C62.8125 120.542 63.7079 121.438 64.8125 121.438H69.1875C70.2921 121.438 71.1875 120.542 71.1875 119.438V115.062Z" fill="#393967"/>
<path d="M87.9375 113.062H79.5625V121.438H87.9375V113.062Z" fill="#393967"/>
<path d="M113.062 113.062H104.687L104.687 121.438H113.062V113.062Z" fill="#393967"/>
<path d="M138.187 113.062H129.812V121.438H136.187C137.292 121.438 138.187 120.542 138.187 119.438V113.062Z" fill="#393967"/>
<path d="M154.937 115.062C154.937 113.958 154.042 113.062 152.937 113.062H148.562C147.458 113.062 146.562 113.958 146.562 115.062V121.438H154.937V115.062Z" fill="#393967"/>
<path d="M180.062 113.062H171.687V121.438H180.062V113.062Z" fill="#393967"/>
<path d="M87.9375 121.438H79.5625V127.812C79.5625 128.917 80.4579 129.812 81.5625 129.812H87.9375V121.438Z" fill="#393967"/>
<path d="M96.3125 123.438C96.3125 122.333 95.4171 121.438 94.3125 121.438H87.9375V129.812H96.3125V123.438Z" fill="#393967"/>
<path d="M113.062 121.438H104.687V129.812H113.062V121.438Z" fill="#393967"/>
<path d="M121.438 121.438H113.062V129.812H121.438V121.438Z" fill="#393967"/>
<path d="M129.812 121.438H121.438V129.812H129.812V121.438Z" fill="#393967"/>
<path d="M154.937 121.438H146.562V129.812H154.937V121.438Z" fill="#393967"/>
<path d="M163.312 121.438H154.937V129.812H163.312V121.438Z" fill="#393967"/>
<path d="M171.687 121.438H163.312V129.812H171.687V121.438Z" fill="#393967"/>
<path d="M188.438 123.438C188.438 122.333 187.542 121.438 186.438 121.438H180.062V127.812C180.062 128.917 180.958 129.812 182.062 129.812H186.438C187.542 129.812 188.438 128.917 188.438 127.812V123.438Z" fill="#393967"/>
<path d="M20.9375 129.812H14.5625C13.4579 129.812 12.5625 130.708 12.5625 131.812V138.187H20.9375V129.812Z" fill="#393967"/>
<path d="M29.3125 129.812H20.9375V138.187H29.3125V129.812Z" fill="#393967"/>
<path d="M37.6875 129.812H29.3125V138.187H37.6875V129.812Z" fill="#393967"/>
<path d="M46.0625 129.812H37.6875V138.187H46.0625V129.812Z" fill="#393967"/>
<path d="M54.4375 129.812H46.0625V138.187H54.4375V129.812Z" fill="#393967"/>
<path d="M62.8125 129.812H54.4375V138.187H62.8125V129.812Z" fill="#393967"/>
<path d="M71.1875 131.812C71.1875 130.708 70.2921 129.812 69.1875 129.812H62.8125V138.187H71.1875V131.812Z" fill="#393967"/>
<path d="M104.687 129.812H96.3125V138.187H104.687L104.687 129.812Z" fill="#393967"/>
<path d="M113.062 129.812H104.687L104.687 138.187H113.062V129.812Z" fill="#393967"/>
<path d="M121.438 129.812H113.062V138.187H121.438V129.812Z" fill="#393967"/>
<path d="M129.812 129.812H121.438V138.187H129.812V129.812Z" fill="#393967"/>
<path d="M138.187 129.812H129.812V138.187H138.187V129.812Z" fill="#393967"/>
<path d="M146.562 129.812H138.187V138.187H146.562V129.812Z" fill="#393967"/>
<path d="M154.937 129.812H146.562V138.187H154.937V129.812Z" fill="#393967"/>
<path d="M163.312 129.812H154.937V138.187H163.312V129.812Z" fill="#393967"/>
<path d="M171.687 129.812H163.312V138.187H171.687V129.812Z" fill="#393967"/>
<path d="M20.9375 138.187H12.5625V146.562H20.9375V138.187Z" fill="#393967"/>
<path d="M71.1875 138.187H62.8125V146.562H71.1875V138.187Z" fill="#393967"/>
<path d="M87.9375 138.187H81.5625C80.4579 138.187 79.5625 139.083 79.5625 140.188V144.562C79.5625 145.667 80.4579 146.562 81.5625 146.562H87.9375V138.187Z" fill="#393967"/>
<path d="M96.3125 138.187H87.9375V146.562H96.3125V138.187Z" fill="#393967"/>
<path d="M104.687 138.187H96.3125V146.562H104.687V138.187Z" fill="#393967"/>
<path d="M113.062 138.187H104.687V146.562H113.062V138.187Z" fill="#393967"/>
<path d="M121.438 138.187H113.062V146.562H121.438V138.187Z" fill="#393967"/>
<path d="M129.812 138.187H121.438V146.562H129.812V138.187Z" fill="#393967"/>
<path d="M163.312 138.187H154.937V144.562C154.937 145.667 155.833 146.562 156.937 146.562H163.312V138.187Z" fill="#393967"/>
<path d="M171.687 138.187H163.312V146.562H171.687V138.187Z" fill="#393967"/>
<path d="M180.062 138.187H171.687V146.562H180.062V138.187Z" fill="#393967"/>
<path d="M188.438 140.187C188.438 139.083 187.542 138.187 186.438 138.187H180.062V146.562H186.438C187.542 146.562 188.438 145.667 188.438 144.562V140.187Z" fill="#393967"/>
<path d="M20.9375 146.562H12.5625V154.937H20.9375V146.562Z" fill="#393967"/>
<path d="M37.6875 146.562H31.3125C30.2079 146.562 29.3125 147.458 29.3125 148.562V154.937H37.6875V146.562Z" fill="#393967"/>
<path d="M46.0625 146.562H37.6875V154.937H46.0625V146.562Z" fill="#393967"/>
<path d="M54.4375 148.562C54.4375 147.458 53.5421 146.562 52.4375 146.562H46.0625V154.937H54.4375V148.562Z" fill="#393967"/>
<path d="M71.1875 146.562H62.8125V154.937H71.1875V146.562Z" fill="#393967"/>
<path d="M104.687 146.562H96.3125V154.937H104.687V146.562Z" fill="#393967"/>
<path d="M113.062 146.562H104.687V154.937H113.062V146.562Z" fill="#393967"/>
<path d="M129.812 146.562H121.438V154.937H129.812V146.562Z" fill="#393967"/>
<path d="M138.187 146.562H129.812V154.937H138.187V146.562Z" fill="#393967"/>
<path d="M146.562 148.562C146.562 147.458 145.667 146.562 144.562 146.562H138.187V154.937H144.562C145.667 154.937 146.562 154.042 146.562 152.937V148.562Z" fill="#393967"/>
<path d="M171.687 146.562H163.312V154.937H171.687V146.562Z" fill="#393967"/>
<path d="M20.9375 154.937H12.5625V163.312H20.9375V154.937Z" fill="#393967"/>
<path d="M37.6875 154.937H29.3125V163.312H37.6875V154.937Z" fill="#393967"/>
<path d="M46.0625 154.937H37.6875V163.312H46.0625V154.937Z" fill="#393967"/>
<path d="M54.4375 154.937H46.0625V163.312H54.4375V154.937Z" fill="#393967"/>
<path d="M71.1875 154.937H62.8125V163.312H71.1875V154.937Z" fill="#393967"/>
<path d="M104.687 154.937H96.3125V163.312H104.687V154.937Z" fill="#393967"/>
<path d="M113.062 154.937H104.687V163.312H113.062V154.937Z" fill="#393967"/>
<path d="M129.812 154.937H121.438V163.312H127.812C128.917 163.312 129.812 162.417 129.812 161.312V154.937Z" fill="#393967"/>
<path d="M171.687 154.937H163.312V161.312C163.312 162.417 164.208 163.312 165.312 163.312H169.687C170.792 163.312 171.687 162.417 171.687 161.312V154.937Z" fill="#393967"/>
<path d="M188.438 156.937C188.438 155.833 187.542 154.937 186.438 154.937H182.062C180.958 154.937 180.062 155.833 180.062 156.937V163.312H188.438V156.937Z" fill="#393967"/>
<path d="M20.9375 163.312H12.5625V171.687H20.9375V163.312Z" fill="#393967"/>
<path d="M37.6875 163.312H29.3125V169.687C29.3125 170.792 30.2079 171.687 31.3125 171.687H37.6875V163.312Z" fill="#393967"/>
<path d="M46.0625 163.312H37.6875V171.687H46.0625V163.312Z" fill="#393967"/>
<path d="M54.4375 163.312H46.0625V171.687H52.4375C53.5421 171.687 54.4375 170.792 54.4375 169.687V163.312Z" fill="#393967"/>
<path d="M71.1875 163.312H62.8125V171.687H71.1875V163.312Z" fill="#393967"/>
<path d="M96.3125 163.312H89.9375C88.8329 163.312 87.9375 164.208 87.9375 165.312V171.687H96.3125V163.312Z" fill="#393967"/>
<path d="M104.687 163.312H96.3125V171.687H104.687V163.312Z" fill="#393967"/>
<path d="M121.438 163.312H113.062V171.687H121.438V163.312Z" fill="#393967"/>
<path d="M154.937 165.312C154.937 164.208 154.042 163.312 152.937 163.312H148.562C147.458 163.312 146.562 164.208 146.562 165.312V171.687H154.937V165.312Z" fill="#393967"/>
<path d="M188.438 163.312H180.062V171.687H188.438V163.312Z" fill="#393967"/>
<path d="M20.9375 171.687H12.5625V180.062H20.9375V171.687Z" fill="#393967"/>
<path d="M71.1875 171.687H62.8125V180.062H71.1875V171.687Z" fill="#393967"/>
<path d="M96.3125 171.687H87.9375V178.062C87.9375 179.167 88.8329 180.062 89.9375 180.062H96.3125V171.687Z" fill="#393967"/>
<path d="M113.062 171.687H104.687L104.687 180.062H113.062V171.687Z" fill="#393967"/>
<path d="M121.438 171.687H113.062V180.062H121.438V171.687Z" fill="#393967"/>
<path d="M129.812 171.687H121.438V180.062H129.812V171.687Z" fill="#393967"/>
<path d="M138.187 171.687H129.812V180.062H138.187V171.687Z" fill="#393967"/>
<path d="M146.562 171.687H138.187V180.062H146.562V171.687Z" fill="#393967"/>
<path d="M163.312 173.687C163.312 172.583 162.417 171.687 161.312 171.687H154.937V180.062H163.312V173.687Z" fill="#393967"/>
<path d="M188.438 171.687H180.062V178.062C180.062 179.167 180.958 180.062 182.062 180.062H186.438C187.542 180.062 188.438 179.167 188.438 178.062V171.687Z" fill="#393967"/>
<path d="M20.9375 180.062H12.5625V186.438C12.5625 187.542 13.4579 188.438 14.5625 188.438H20.9375V180.062Z" fill="#393967"/>
<path d="M29.3125 180.062H20.9375V188.438H29.3125V180.062Z" fill="#393967"/>
<path d="M37.6875 180.062H29.3125V188.438H37.6875V180.062Z" fill="#393967"/>
<path d="M46.0625 180.062H37.6875V188.438H46.0625V180.062Z" fill="#393967"/>
<path d="M54.4375 180.062H46.0625V188.438H54.4375V180.062Z" fill="#393967"/>
<path d="M62.8125 180.062H54.4375V188.438H62.8125V180.062Z" fill="#393967"/>
<path d="M71.1875 180.062H62.8125V188.438H69.1875C70.2921 188.438 71.1875 187.542 71.1875 186.438V180.062Z" fill="#393967"/>
<path d="M104.687 180.062H96.3125V186.438C96.3125 187.542 97.2079 188.438 98.3125 188.438H102.687C103.792 188.438 104.687 187.542 104.687 186.438L104.687 180.062Z" fill="#393967"/>
<path d="M121.438 180.062H113.062V186.438C113.062 187.542 113.958 188.438 115.062 188.438H119.438C120.542 188.438 121.438 187.542 121.438 186.438V180.062Z" fill="#393967"/>
<path d="M146.562 180.062H138.187V186.438C138.187 187.542 139.083 188.438 140.188 188.438H146.562V180.062Z" fill="#393967"/>
<path d="M154.937 180.062H146.562V188.438H154.937V180.062Z" fill="#393967"/>
<path d="M163.312 180.062H154.937V188.438H163.312V180.062Z" fill="#393967"/>
<path d="M171.687 182.062C171.687 180.958 170.792 180.062 169.687 180.062H163.312V188.438H169.687C170.792 188.438 171.687 187.542 171.687 186.438V182.062Z" fill="#393967"/>
</svg>
