<svg width="46" height="42" viewBox="0 0 46 42" fill="none" xmlns="http://www.w3.org/2000/svg">
<path d="M39.6667 12.5835C39.0764 12.5835 38.582 12.3835 38.1834 11.9835C37.7848 11.5835 37.5848 11.0891 37.5834 10.5002V8.41684H35.5C34.9098 8.41684 34.4153 8.21684 34.0167 7.81684C33.6181 7.41684 33.4181 6.92239 33.4167 6.3335C33.4153 5.74461 33.6153 5.25017 34.0167 4.85017C34.4181 4.45017 34.9125 4.25017 35.5 4.25017H37.5834V2.16684C37.5834 1.57656 37.7834 1.08211 38.1834 0.683503C38.5834 0.284892 39.0778 0.0848922 39.6667 0.0835033C40.2556 0.0821144 40.7507 0.282114 41.1521 0.683503C41.5535 1.08489 41.7528 1.57934 41.75 2.16684V4.25017H43.8334C44.4236 4.25017 44.9188 4.45017 45.3188 4.85017C45.7188 5.25017 45.9181 5.74461 45.9167 6.3335C45.9153 6.92239 45.7153 7.41753 45.3167 7.81892C44.9181 8.22031 44.4236 8.41961 43.8334 8.41684H41.75V10.5002C41.75 11.0904 41.55 11.5856 41.15 11.9856C40.75 12.3856 40.2556 12.5849 39.6667 12.5835ZM20.9167 34.4585C23.5209 34.4585 25.7348 33.5474 27.5584 31.7252C29.382 29.9029 30.2931 27.6891 30.2917 25.0835C30.2903 22.4779 29.3792 20.2648 27.5584 18.4439C25.7375 16.6231 23.5237 15.7113 20.9167 15.7085C18.3098 15.7057 16.0966 16.6175 14.2771 18.4439C12.4577 20.2703 11.5459 22.4835 11.5417 25.0835C11.5375 27.6835 12.4493 29.8974 14.2771 31.7252C16.1049 33.5529 18.3181 34.4641 20.9167 34.4585ZM20.9167 30.2918C19.4584 30.2918 18.2257 29.7884 17.2188 28.7814C16.2118 27.7745 15.7084 26.5418 15.7084 25.0835C15.7084 23.6252 16.2118 22.3925 17.2188 21.3856C18.2257 20.3786 19.4584 19.8752 20.9167 19.8752C22.375 19.8752 23.6077 20.3786 24.6146 21.3856C25.6216 22.3925 26.125 23.6252 26.125 25.0835C26.125 26.5418 25.6216 27.7745 24.6146 28.7814C23.6077 29.7884 22.375 30.2918 20.9167 30.2918ZM4.25004 41.7502C3.10421 41.7502 2.12365 41.3425 1.30837 40.5273C0.493096 39.712 0.0847629 38.7307 0.083374 37.5835V12.5835C0.083374 11.4377 0.491707 10.4571 1.30837 9.64184C2.12504 8.82656 3.1056 8.41823 4.25004 8.41684H10.8125L13.4167 5.60434C13.7987 5.18767 14.2591 4.85781 14.798 4.61475C15.3368 4.3717 15.9007 4.25017 16.4896 4.25017H27.1667C27.757 4.25017 28.2521 4.45017 28.6521 4.85017C29.0521 5.25017 29.2514 5.74461 29.25 6.3335V9.4585C29.25 10.3266 29.5542 11.0648 30.1625 11.6731C30.7709 12.2814 31.5084 12.5849 32.375 12.5835H33.4167V13.6252C33.4167 14.4932 33.7209 15.2314 34.3292 15.8398C34.9375 16.4481 35.675 16.7516 36.5417 16.7502H39.6667C40.257 16.7502 40.7521 16.9502 41.1521 17.3502C41.5521 17.7502 41.7514 18.2446 41.75 18.8335V37.5835C41.75 38.7293 41.3424 39.7106 40.5271 40.5273C39.7118 41.3439 38.7306 41.7516 37.5834 41.7502H4.25004Z" fill="#080741"/>
</svg>
