<svg width="65" height="65" viewBox="0 0 65 65" fill="none" xmlns="http://www.w3.org/2000/svg">
<g clip-path="url(#clip0_1742_2284)">
<path d="M19.8045 46.9729C19.1037 46.9729 18.535 47.5417 18.535 48.2424C18.535 48.9432 19.1037 49.512 19.8045 49.512C20.5053 49.512 21.074 48.9432 21.074 48.2424C21.074 47.5417 20.5053 46.9729 19.8045 46.9729Z" fill="#9D9D9D"/>
<path d="M57.1467 24.1212L64.6279 16.64C64.9426 16.3253 65.0695 15.8687 64.9624 15.4369C64.8554 15.0048 64.5299 14.6605 64.1046 14.5293L45.8868 8.90651C44.2446 3.62768 39.3635 0.000244141 33.769 0.000244141C28.5685 0.000244141 23.9175 3.16963 21.9925 7.95068L0.891095 14.5304C0.466945 14.6627 0.142707 15.0072 0.036447 15.4388C-0.0698128 15.8701 0.0571404 16.3259 0.371349 16.6401L8.04935 24.3181L3.20685 32.3892C3.00867 32.7194 2.97122 33.1217 3.10478 33.4829C3.23833 33.844 3.52867 34.125 3.89404 34.2467L10.9175 36.5877V56.1134C10.9175 56.6425 11.2458 57.1162 11.7413 57.3021C16.0357 58.9123 31.9918 64.8966 32.0775 64.927C32.3294 65.0157 32.6131 65.0278 32.8898 64.9383C32.8934 64.937 32.8973 64.9362 32.9009 64.935L55.7525 57.3178C56.2708 57.145 56.6206 56.6598 56.6206 56.1134V36.065L64.1106 33.7112C64.5341 33.5782 64.8573 33.2336 64.9631 32.8025C65.0687 32.3714 64.9416 31.9164 64.6278 31.6024L57.1467 24.1212ZM46.4643 12.6956C46.4643 12.373 46.4508 12.0511 46.4265 11.7303L61.3427 16.3343L55.0082 22.6687L44.6579 19.219C45.83 17.26 46.4643 14.9995 46.4643 12.6956ZM24.1621 9.39122C25.5714 5.29292 29.4322 2.53931 33.769 2.53931C38.441 2.53931 42.4931 5.69942 43.6229 10.224C43.8236 11.028 43.9253 11.8596 43.9253 12.6956C43.9253 15.0536 43.1427 17.2637 41.662 19.0879C39.7225 21.4799 36.8456 22.8518 33.769 22.8518C30.4434 22.8518 27.324 21.2194 25.424 18.4841C24.2392 16.7822 23.6128 14.7804 23.6128 12.6956C23.6128 11.5617 23.7975 10.45 24.1621 9.39122ZM3.65131 16.3293L21.2089 10.8546C21.1208 11.4612 21.0737 12.0756 21.0737 12.6954C21.0737 14.7395 21.5579 16.7193 22.4809 18.5057L9.99084 22.6687L3.65131 16.3293ZM6.19837 32.3384L10.2126 25.6477L30.5966 32.4424L26.5825 39.133C24.4059 38.4075 8.52237 33.1129 6.19837 32.3384ZM31.23 61.8988L13.4565 55.2337V37.4341C27.4404 42.0707 26.7575 41.9292 27.1469 41.9292C27.5834 41.9292 28.0013 41.7033 28.2358 41.3127L31.23 36.322V61.8988ZM32.4995 30.4003L13.6627 24.1215L23.9198 20.7026C26.3204 23.6539 29.9344 25.3909 33.769 25.3909C37.3164 25.3909 40.6503 23.931 43.0483 21.359L51.3363 24.1213L32.4995 30.4003ZM54.0815 55.1984L33.769 61.9692V35.3573L38.2697 40.9826C38.5971 41.3918 39.1421 41.5576 39.6416 41.4007L54.0815 36.863V55.1984ZM39.7094 38.718L34.6283 32.3671L55.0082 25.5738L61.3512 31.9169L39.7094 38.718Z" fill="#9D9D9D"/>
<path d="M27.8676 49.7908L25.0441 48.732C24.3876 48.486 23.6559 48.8184 23.4096 49.4749C23.1634 50.1315 23.496 50.8633 24.1525 51.1094L26.976 52.1682C27.6338 52.4148 28.3647 52.0806 28.6105 51.4253C28.8566 50.7688 28.524 50.0369 27.8676 49.7908Z" fill="#9D9D9D"/>
<path d="M27.8675 55.2142L20.2503 52.3578C19.5939 52.1116 18.8621 52.4442 18.6158 53.1007C18.3695 53.7572 18.7023 54.4891 19.3588 54.7352L26.9759 57.5917C27.1228 57.6468 27.2734 57.6729 27.4216 57.6729C27.9356 57.6729 28.4193 57.3585 28.6105 56.8487C28.8568 56.1921 28.5241 55.4604 27.8675 55.2142Z" fill="#9D9D9D"/>
<path d="M41.0148 7.98929C40.5191 7.49341 39.7152 7.49354 39.2193 7.98929L32.4998 14.7089L30.8585 13.0675C30.3627 12.5718 29.5588 12.5718 29.063 13.0675C28.5671 13.5633 28.5672 14.3672 29.063 14.863L31.6021 17.402C32.0979 17.8977 32.9018 17.8977 33.3976 17.402L41.0148 9.78479C41.5106 9.28904 41.5106 8.48517 41.0148 7.98929Z" fill="#9D9D9D"/>
</g>
<defs>
<clipPath id="clip0_1742_2284">
<rect width="65" height="65" fill="white"/>
</clipPath>
</defs>
</svg>
