<svg width="36" height="36" viewBox="0 0 36 36" fill="none" xmlns="http://www.w3.org/2000/svg">
<path d="M8.90332 25.1718H13.559C13.6381 27.3189 15.4009 29.3077 18 29.3077C20.5878 29.3077 22.3619 27.3415 22.4523 25.1718H27.0967C28.2719 25.1718 28.9951 24.5277 28.9951 23.5559C28.9951 22.3468 27.899 21.3185 26.8707 20.3354C26.0684 19.5556 25.8763 17.9962 25.7294 16.4029C25.5711 12.1427 24.3168 9.29504 21.3788 8.23281C20.9381 6.72988 19.6837 5.58856 18 5.58856C16.3163 5.58856 15.0619 6.72988 14.6325 8.23281C11.6832 9.29504 10.4402 12.1427 10.2706 16.4029C10.1237 17.9962 9.93164 19.5556 9.12932 20.3354C8.101 21.3185 7.00488 22.3468 7.00488 23.5559C7.00488 24.5277 7.7281 25.1718 8.90332 25.1718ZM9.76214 23.07V22.9344C10.0559 22.6067 10.7114 22.0078 11.2651 21.375C12.0448 20.4823 12.4064 18.8324 12.5194 16.6854C12.655 12.154 14.0562 10.6285 15.8643 10.1426C16.1468 10.0635 16.2937 9.92785 16.3163 9.62274C16.3728 8.48142 17.0169 7.713 18 7.713C18.9944 7.713 19.6272 8.48142 19.6837 9.62274C19.7063 9.92785 19.8645 10.0635 20.1357 10.1426C21.9551 10.6285 23.345 12.154 23.4806 16.6854C23.6049 18.8324 23.9665 20.4823 24.7349 21.375C25.2886 22.0078 25.9215 22.6067 26.2153 22.9344V23.07H9.76214ZM18 27.4884C16.7231 27.4884 15.8078 26.5731 15.7287 25.1718H20.2826C20.2148 26.5618 19.2882 27.4884 18 27.4884Z" fill="#A2A2A2"/>
</svg>
