<svg width="32" height="32" viewBox="0 0 32 32" fill="none" xmlns="http://www.w3.org/2000/svg">
<path d="M15.9999 15.8258C18.4307 15.8258 20.3995 13.6763 20.3995 11.0446C20.3995 8.45307 18.4307 6.39392 15.9999 6.39392C13.5792 6.39392 11.5903 8.48321 11.6004 11.0647C11.6104 13.6863 13.5691 15.8258 15.9999 15.8258ZM15.9999 14.068C14.6138 14.068 13.4385 12.7522 13.4385 11.0647C13.4285 9.41736 14.6037 8.15173 15.9999 8.15173C17.4062 8.15173 18.5613 9.39727 18.5613 11.0446C18.5613 12.7321 17.3961 14.068 15.9999 14.068ZM9.73207 25.1674H22.2577C23.9955 25.1674 24.8292 24.6149 24.8292 23.4296C24.8292 20.6674 21.3839 16.991 15.9999 16.991C10.616 16.991 7.16064 20.6674 7.16064 23.4296C7.16064 24.6149 7.99435 25.1674 9.73207 25.1674ZM9.42069 23.4095C9.17962 23.4095 9.08922 23.3292 9.08922 23.1484C9.08922 21.6116 11.5702 18.7488 15.9999 18.7488C20.4196 18.7488 22.9006 21.6116 22.9006 23.1484C22.9006 23.3292 22.8102 23.4095 22.5691 23.4095H9.42069Z" fill="#F6F6F6"/>
</svg>
