<svg width="28" height="28" viewBox="0 0 28 28" fill="none" xmlns="http://www.w3.org/2000/svg">
<path d="M12.7502 19.084C14.1477 19.084 15.4573 18.6621 16.5471 17.9414L20.3967 21.7998C20.6516 22.0459 20.9768 22.1689 21.3284 22.1689C22.0579 22.1689 22.594 21.5977 22.594 20.877C22.594 20.543 22.4797 20.2178 22.2336 19.9717L18.4104 16.1309C19.2014 15.0059 19.6672 13.6436 19.6672 12.167C19.6672 8.36133 16.5559 5.25 12.7502 5.25C8.95337 5.25 5.83325 8.36133 5.83325 12.167C5.83325 15.9727 8.94458 19.084 12.7502 19.084ZM12.7502 17.2383C9.96411 17.2383 7.67895 14.9531 7.67895 12.167C7.67895 9.38086 9.96411 7.0957 12.7502 7.0957C15.5364 7.0957 17.8215 9.38086 17.8215 12.167C17.8215 14.9531 15.5364 17.2383 12.7502 17.2383Z" fill="#080741"/>
</svg>
