<svg width="41" height="41" viewBox="0 0 41 41" fill="none" xmlns="http://www.w3.org/2000/svg">
<path d="M38.4375 20.5C38.4375 30.4015 30.4105 38.4375 20.5 38.4375C10.5895 38.4375 2.5625 30.4015 2.5625 20.5C2.5625 10.5895 10.5895 2.5625 20.5 2.5625C30.4105 2.5625 38.4375 10.5895 38.4375 20.5Z" fill="#283544"/>
<path d="M28.9077 15.961C28.8098 16.0181 26.4797 17.2232 26.4797 19.8951C26.5895 22.9422 29.4202 24.0108 29.4688 24.0108C29.4202 24.0679 29.0414 25.4665 27.9193 26.9326C27.0288 28.1955 26.0404 29.4687 24.5395 29.4687C23.1118 29.4687 22.5993 28.6271 20.952 28.6271C19.1829 28.6271 18.6823 29.4687 17.3279 29.4687C15.827 29.4687 14.7654 28.1272 13.8263 26.8762C12.6063 25.2388 11.5694 22.6693 11.5328 20.2021C11.5081 18.8947 11.7771 17.6095 12.4599 16.5179C13.4236 14.994 15.1442 13.9595 17.0231 13.9254C18.4627 13.8802 19.744 14.8464 20.6225 14.8464C21.4645 14.8464 23.0386 13.9254 24.8196 13.9254C25.5884 13.9262 27.6384 14.142 28.9077 15.961ZM20.5008 13.6644C20.2445 12.4705 20.952 11.2765 21.6109 10.5149C22.4529 9.59389 23.7827 8.96875 24.9295 8.96875C25.0027 10.1627 24.5387 11.3336 23.7095 12.1864C22.9654 13.1075 21.6841 13.8008 20.5008 13.6644Z" fill="white"/>
</svg>
