<svg width="12" height="18" viewBox="0 0 12 18" fill="none" xmlns="http://www.w3.org/2000/svg">
<path d="M1.71345 17.4905C2.12026 17.4905 2.38393 17.2795 3.02427 16.6542L5.9322 13.7765C5.96233 13.7388 6.03013 13.7388 6.06027 13.7765L8.97573 16.6542C9.61607 17.2795 9.87221 17.4905 10.2866 17.4905C10.8892 17.4905 11.2659 17.0761 11.2659 16.3981V3.24465C11.2659 1.74548 10.4824 0.954468 8.99833 0.954468H2.99414C1.51004 0.954468 0.726562 1.74548 0.726562 3.24465V16.3981C0.726562 17.0761 1.10324 17.4905 1.71345 17.4905ZM2.42913 15.0119C2.33119 15.1099 2.21066 15.0797 2.21066 14.9366V3.34258C2.21066 2.7399 2.512 2.4461 3.11468 2.4461H8.87779C9.48047 2.4461 9.78181 2.7399 9.78181 3.34258V14.9366C9.78181 15.0797 9.66881 15.1099 9.56334 15.0119L6.49721 12.0438C6.1808 11.7273 5.8192 11.7273 5.49526 12.0438L2.42913 15.0119Z" fill="#A2A2A2"/>
</svg>
