<svg width="20" height="16" viewBox="0 0 20 16" fill="none" xmlns="http://www.w3.org/2000/svg">
<path d="M3.0127 15.8053H17.1895C18.8857 15.8053 19.8701 14.8209 19.8701 12.9401V3.22815C19.8701 1.34729 18.877 0.362915 16.9785 0.362915H2.80176C1.10547 0.362915 0.121094 1.3385 0.121094 3.22815V12.9401C0.121094 14.8209 1.11426 15.8053 3.0127 15.8053ZM9.00684 8.38733L2.6084 2.0592C2.73145 2.03284 2.87207 2.01526 3.02148 2.01526H16.9697C17.1279 2.01526 17.2686 2.03284 17.4004 2.06799L11.0107 8.38733C10.6416 8.74768 10.334 8.90588 10.0088 8.90588C9.68359 8.90588 9.37598 8.73889 9.00684 8.38733ZM1.76465 3.3512L6.5459 8.05334L1.76465 12.7819V3.3512ZM13.4717 8.05334L18.2266 3.37756V12.7643L13.4717 8.05334ZM3.02148 14.1442C2.86328 14.1442 2.71387 14.1266 2.58203 14.1002L7.61816 9.10803L8.09277 9.58264C8.73438 10.2067 9.34961 10.4703 10.0088 10.4703C10.6592 10.4703 11.2832 10.2067 11.916 9.58264L12.3994 9.10803L17.4268 14.0914C17.2861 14.1266 17.1367 14.1442 16.9697 14.1442H3.02148Z" fill="#A2A2A2"/>
</svg>
