<svg width="18" height="14" viewBox="0 0 18 14" fill="none" xmlns="http://www.w3.org/2000/svg">
<path d="M9.00752 7.49468C9.33146 7.49468 9.61773 7.34401 9.95673 7.005L16.5259 0.488543C16.2321 0.224871 15.7123 0.0968018 14.9816 0.0968018H2.83006C2.18218 0.0968018 1.72264 0.217337 1.45897 0.458409L8.0583 7.005C8.38977 7.34401 8.68358 7.49468 9.00752 7.49468ZM0.735753 12.0524L6.15233 6.6886L0.743286 1.34736C0.607683 1.58843 0.532349 1.98771 0.532349 2.55272V10.8772C0.532349 11.4272 0.60015 11.8189 0.735753 12.0524ZM17.2642 12.0449C17.3923 11.8114 17.4601 11.4196 17.4601 10.8772V2.55272C17.4601 2.00277 17.3847 1.6035 17.2491 1.36996L11.8627 6.6886L17.2642 12.0449ZM3.01086 13.3331H15.1624C15.8253 13.3331 16.2924 13.2051 16.5636 12.9565L11.0491 7.47961L10.582 7.93916C10.0622 8.4439 9.56499 8.68497 9.00752 8.68497C8.45004 8.68497 7.9453 8.4439 7.42548 7.93916L6.95841 7.47961L1.45143 12.9414C1.75277 13.1975 2.28012 13.3331 3.01086 13.3331Z" fill="#080741"/>
</svg>
