<svg width="22" height="14" viewBox="0 0 22 14" fill="none" xmlns="http://www.w3.org/2000/svg">
<path d="M11.0075 13.2428C17.1925 13.2428 21.351 8.25562 21.351 6.71125C21.351 5.16689 17.1774 0.187256 11.0075 0.187256C4.91294 0.187256 0.648987 5.16689 0.648987 6.71125C0.648987 8.25562 4.89787 13.2428 11.0075 13.2428ZM11.0075 11.7662C6.20116 11.7662 2.39675 7.76594 2.39675 6.71125C2.39675 5.82983 6.20116 1.66382 11.0075 1.66382C15.7913 1.66382 19.6032 5.82983 19.6032 6.71125C19.6032 7.76594 15.7913 11.7662 11.0075 11.7662ZM11.0075 10.7567C13.2525 10.7567 15.053 8.91103 15.053 6.71125C15.053 4.45874 13.2525 2.67331 11.0075 2.67331C8.74748 2.67331 6.93944 4.45874 6.94698 6.71125C6.96204 8.91103 8.74748 10.7567 11.0075 10.7567ZM11 8.01454C10.2768 8.01454 9.68917 7.42693 9.68917 6.71125C9.68917 5.99557 10.2768 5.40796 11 5.40796C11.7232 5.40796 12.3108 5.99557 12.3108 6.71125C12.3108 7.42693 11.7232 8.01454 11 8.01454Z" fill="#A2A2A2"/>
</svg>
