<svg width="22" height="14" viewBox="0 0 22 14" fill="none" xmlns="http://www.w3.org/2000/svg">
<path d="M11 13.1749C17.1172 13.1749 21.2455 8.2405 21.2455 6.7112C21.2455 5.18944 17.1096 0.255005 11 0.255005C4.97321 0.255005 0.754456 5.18944 0.754456 6.7112C0.754456 8.2405 4.96567 13.1749 11 13.1749ZM11.0075 10.8245C8.70981 10.8245 6.87918 8.94864 6.87164 6.71873C6.86411 4.41349 8.70981 2.60545 11.0075 2.60545C13.2902 2.60545 15.1359 4.42102 15.1359 6.71873C15.1359 8.94864 13.2902 10.8245 11.0075 10.8245ZM11.0075 8.24803C11.8513 8.24803 12.5519 7.55495 12.5519 6.71873C12.5519 5.87498 11.8513 5.17437 11.0075 5.17437C10.1487 5.17437 9.45563 5.87498 9.45563 6.71873C9.45563 7.55495 10.1487 8.24803 11.0075 8.24803Z" fill="#080741"/>
</svg>
