<svg width="41" height="41" viewBox="0 0 41 41" fill="none" xmlns="http://www.w3.org/2000/svg">
<path d="M38.4393 20.8984C38.4393 19.4235 38.3172 18.3473 38.0529 17.2312H20.8679V23.8879H30.9551C30.7518 25.5422 29.6536 28.0335 27.2131 29.7076L27.1789 29.9305L32.6125 34.0556L32.9889 34.0924C36.4462 30.9633 38.4393 26.3593 38.4393 20.8984Z" fill="#4285F4"/>
<path d="M20.8668 38.4375C25.8087 38.4375 29.9574 36.8429 32.9878 34.0926L27.212 29.7077C25.6664 30.7641 23.5919 31.5015 20.8668 31.5015C16.0266 31.5015 11.9185 28.3725 10.4541 24.0475L10.2394 24.0653L4.58951 28.3505L4.51562 28.5518C7.5255 34.4114 13.708 38.4375 20.8668 38.4375Z" fill="#34A853"/>
<path d="M10.455 24.0476C10.0686 22.9315 9.84497 21.7356 9.84497 20.5C9.84497 19.2642 10.0686 18.0684 10.4347 16.9523L10.4244 16.7146L4.70371 12.3607L4.51654 12.448C3.27602 14.8795 2.56421 17.6101 2.56421 20.5C2.56421 23.3899 3.27602 26.1203 4.51654 28.5519L10.455 24.0476Z" fill="#FBBC05"/>
<path d="M20.8669 9.49829C24.3038 9.49829 26.6223 10.9532 27.9442 12.1691L33.1099 7.22625C29.9374 4.33633 25.8088 2.5625 20.8669 2.5625C13.7081 2.5625 7.52552 6.58844 4.51562 12.448L10.4338 16.9523C11.9185 12.6274 16.0266 9.49829 20.8669 9.49829Z" fill="#EB4335"/>
</svg>
