<svg width="12" height="16" viewBox="0 0 12 16" fill="none" xmlns="http://www.w3.org/2000/svg">
<path d="M2.45923 15.0563H9.5407C10.7084 15.0563 11.2809 14.4762 11.2809 13.2106V7.8543C11.2809 6.73181 10.8289 6.15173 9.90984 6.0312V4.2759C9.90984 1.41317 8.00387 0.0345459 5.99997 0.0345459C3.99606 0.0345459 2.09009 1.41317 2.09009 4.2759V6.0312C1.171 6.15173 0.718994 6.73181 0.718994 7.8543V13.2106C0.718994 14.4762 1.29154 15.0563 2.45923 15.0563ZM3.53652 4.14029C3.53652 2.38499 4.65147 1.42071 5.99997 1.42071C7.34093 1.42071 8.46341 2.38499 8.46341 4.14029V6.0086H3.53652V4.14029ZM2.7003 13.6927C2.36883 13.6927 2.20309 13.5345 2.20309 13.1428V7.9221C2.20309 7.52283 2.36883 7.37969 2.7003 7.37969H9.30716C9.63864 7.37969 9.79684 7.52283 9.79684 7.9221V13.1428C9.79684 13.5345 9.63864 13.6927 9.30716 13.6927H2.7003Z" fill="#A2A2A2"/>
</svg>
