<svg width="12" height="15" viewBox="0 0 12 15" fill="none" xmlns="http://www.w3.org/2000/svg">
<path d="M2.3463 14.9584H9.65377C10.6633 14.9584 11.1605 14.4612 11.1605 13.3613V7.7187C11.1605 6.72428 10.7537 6.21953 9.90991 6.13667V4.2759C9.90991 1.41317 8.00394 0.0345459 6.00003 0.0345459C3.99613 0.0345459 2.09016 1.41317 2.09016 4.2759V6.15927C1.30668 6.2798 0.8396 6.77701 0.8396 7.7187V13.3613C0.8396 14.4612 1.33681 14.9584 2.3463 14.9584ZM3.53659 4.14029C3.53659 2.38499 4.65154 1.42071 6.00003 1.42071C7.34099 1.42071 8.46348 2.38499 8.46348 4.14029V6.1216L3.53659 6.12913V4.14029Z" fill="#080741"/>
</svg>
