<svg width="14" height="15" viewBox="0 0 14 15" fill="none" xmlns="http://www.w3.org/2000/svg">
<path d="M6.99995 7.36947C8.82305 7.36947 10.2996 5.75731 10.2996 3.78353C10.2996 1.8399 8.82305 0.295532 6.99995 0.295532C5.18438 0.295532 3.69275 1.8625 3.70028 3.7986C3.70782 5.76484 5.17685 7.36947 6.99995 7.36947ZM6.99995 6.05111C5.96033 6.05111 5.07891 5.06423 5.07891 3.7986C5.07138 2.56311 5.95279 1.61389 6.99995 1.61389C8.05464 1.61389 8.92099 2.54804 8.92099 3.78353C8.92099 5.04916 8.0471 6.05111 6.99995 6.05111ZM2.29905 14.3756H11.6933C12.9966 14.3756 13.6219 13.9613 13.6219 13.0723C13.6219 11.0006 11.0379 8.24336 6.99995 8.24336C2.962 8.24336 0.370483 11.0006 0.370483 13.0723C0.370483 13.9613 0.995762 14.3756 2.29905 14.3756ZM2.06552 13.0573C1.88471 13.0573 1.81691 12.997 1.81691 12.8614C1.81691 11.7088 3.67768 9.56172 6.99995 9.56172C10.3147 9.56172 12.1755 11.7088 12.1755 12.8614C12.1755 12.997 12.1076 13.0573 11.9268 13.0573H2.06552Z" fill="#A2A2A2"/>
</svg>
